HIERARCHY
ROOT joint_0
{
	OFFSET 0.000000 0.000000 0.000000
	CHANNELS 6 Xposition Yposition Zposition Zrotation Yrotation Xrotation 
	JOINT joint_1
	{
		OFFSET 0.587158 0.057678 95.682007
		CHANNELS 3 Zrotation Yrotation Xrotation
		JOINT joint_2
		{
			OFFSET -7.116699 -0.219910 87.157959
			CHANNELS 3 Zrotation Yrotation Xrotation
			JOINT joint_3
			{
				OFFSET -5.892822 -0.290222 87.151001
				CHANNELS 3 Zrotation Yrotation Xrotation
				JOINT joint_4
				{
					OFFSET 5.544678 -0.099609 123.768066
					CHANNELS 3 Zrotation Yrotation Xrotation
					JOINT joint_5
					{
						OFFSET 41.981201 4.519775 84.257935
						CHANNELS 3 Zrotation Yrotation Xrotation
						End Site
						{
							OFFSET 0.000000 0.000000 0.000000
						}
					}
				}
				JOINT joint_6
				{
					OFFSET 3.940918 -26.976501 69.308105
					CHANNELS 3 Zrotation Yrotation Xrotation
					JOINT joint_7
					{
						OFFSET 4.776123 -152.592468 -16.842041
						CHANNELS 3 Zrotation Yrotation Xrotation
						JOINT joint_8
						{
							OFFSET 54.421875 -30.424072 -248.864014
							CHANNELS 3 Zrotation Yrotation Xrotation
							JOINT joint_9
							{
								OFFSET 42.120117 -33.387878 -236.524963
								CHANNELS 3 Zrotation Yrotation Xrotation
								End Site
								{
									OFFSET 0.000000 0.000000 0.000000
								}
							}
						}
					}
				}
				JOINT joint_10
				{
					OFFSET 2.312012 26.904114 69.425049
					CHANNELS 3 Zrotation Yrotation Xrotation
					JOINT joint_11
					{
						OFFSET 0.971436 152.197815 -20.626953
						CHANNELS 3 Zrotation Yrotation Xrotation
						JOINT joint_12
						{
							OFFSET 49.954102 28.991455 -249.970093
							CHANNELS 3 Zrotation Yrotation Xrotation
							JOINT joint_13
							{
								OFFSET 48.146973 19.598389 -236.919922
								CHANNELS 3 Zrotation Yrotation Xrotation
								End Site
								{
									OFFSET 0.000000 0.000000 0.000000
								}
							}
						}
					}
				}
			}
		}
	}
	JOINT joint_14
	{
		OFFSET 16.305664 -89.442932 -108.224976
		CHANNELS 3 Zrotation Yrotation Xrotation
		JOINT joint_15
		{
			OFFSET -22.282471 13.437134 -412.904968
			CHANNELS 3 Zrotation Yrotation Xrotation
			JOINT joint_16
			{
				OFFSET -45.426025 14.484802 -445.892029
				CHANNELS 3 Zrotation Yrotation Xrotation
				JOINT joint_17
				{
					OFFSET 173.389404 -9.944031 -76.473001
					CHANNELS 3 Zrotation Yrotation Xrotation
					End Site
					{
						OFFSET 0.000000 0.000000 0.000000
					}
				}
			}
		}
	}
	JOINT joint_18
	{
		OFFSET 13.392822 89.408875 -108.653992
		CHANNELS 3 Zrotation Yrotation Xrotation
		JOINT joint_19
		{
			OFFSET -29.032959 24.483521 -411.977966
			CHANNELS 3 Zrotation Yrotation Xrotation
			JOINT joint_20
			{
				OFFSET -30.530029 28.986328 -446.453018
				CHANNELS 3 Zrotation Yrotation Xrotation
				JOINT joint_21
				{
					OFFSET 170.330078 33.400757 -76.698997
					CHANNELS 3 Zrotation Yrotation Xrotation
					End Site
					{
						OFFSET 0.000000 0.000000 0.000000
					}
				}
			}
		}
	}
}
MOTION
Frames: 13
Frame Time: 0.016667
-1696.893921 860.674011 1057.284058 1.307309 3.045412 2.791174 -0.829677 -3.896213 -4.133522 -0.416676 0.665098 0.871491 -0.517611 -0.792635 -0.546389 -0.781874 -15.203449 3.447170 0.000000 0.000000 0.000000 0.029217 1.422362 1.285251 0.440059 1.409601 2.402799 -0.346941 -0.286361 -2.183455 0.000000 0.000000 0.000000 1.464807 1.453552 -0.282851 0.081135 1.265555 -0.416421 0.404630 -0.288146 2.116533 0.000000 0.000000 0.000000 0.172737 -0.575936 -0.952925 0.245690 3.539274 0.151785 -0.003643 -5.993185 -0.345352 0.000000 0.000000 0.000000 -6.271642 -3.605681 -3.651905 -6.162529 2.236291 -0.879897 -6.368836 -2.193539 -2.424956 0.000000 0.000000 0.000000 
-1696.802124 860.796082 1057.270020 1.307425 3.016675 2.793118 -0.838241 -3.886282 -4.119357 -0.426879 0.665005 0.865958 -0.527119 -0.790472 -0.541989 -0.782595 -15.183656 3.449011 0.000000 0.000000 0.000000 0.050834 1.409209 1.277524 0.449707 1.399308 2.444324 -0.326743 -0.365906 -2.133015 0.000000 0.000000 0.000000 1.464916 1.470642 -0.282792 0.077021 1.282304 -0.452418 0.392472 -0.319834 2.069066 0.000000 0.000000 0.000000 0.172970 -0.544538 -0.961105 0.244981 3.551353 0.147367 -0.005164 -5.996414 -0.346200 0.000000 0.000000 0.000000 -6.268031 -3.568757 -3.670894 -6.162920 2.236850 -0.871108 -6.368898 -2.198059 -2.424062 0.000000 0.000000 0.000000 
-1696.734375 860.958557 1057.249023 1.292233 2.994247 2.794270 -0.843351 -3.874247 -4.101752 -0.433854 0.665842 0.861984 -0.533640 -0.790258 -0.539465 -0.782234 -15.176602 3.451077 0.000000 0.000000 0.000000 0.072479 1.399527 1.273842 0.455811 1.392321 2.471697 -0.302399 -0.461557 -2.072093 0.000000 0.000000 0.000000 1.468913 1.493482 -0.287151 0.073881 1.304365 -0.486585 0.381757 -0.352009 2.028975 0.000000 0.000000 0.000000 0.176508 -0.540667 -0.973649 0.249268 3.598480 0.146268 -0.002866 -6.012726 -0.346134 0.000000 0.000000 0.000000 -6.259344 -3.538593 -3.695116 -6.158891 2.238180 -0.855115 -6.364009 -2.200723 -2.421323 0.000000 0.000000 0.000000 
-1696.676636 861.144958 1057.223999 1.266365 2.976499 2.794831 -0.845906 -3.863680 -4.083099 -0.438409 0.665622 0.857838 -0.537746 -0.789029 -0.537264 -0.782146 -15.175839 3.455125 0.000000 0.000000 0.000000 0.091624 1.393406 1.273079 0.459707 1.388521 2.490919 -0.275674 -0.565935 -2.004780 0.000000 0.000000 0.000000 1.472979 1.522090 -0.294528 0.071815 1.332290 -0.517907 0.372589 -0.379536 1.994639 0.000000 0.000000 0.000000 0.182604 -0.552953 -0.988187 0.257148 3.664531 0.145970 0.002266 -6.035577 -0.345205 0.000000 0.000000 0.000000 -6.247001 -3.512449 -3.721982 -6.151561 2.238977 -0.835627 -6.355521 -2.202373 -2.417172 0.000000 0.000000 0.000000 
-1696.603149 861.334351 1057.203979 1.240516 2.965327 2.795568 -0.848491 -3.868328 -4.069257 -0.442375 0.668444 0.855175 -0.541379 -0.790288 -0.535053 -0.781464 -15.167646 3.457001 0.000000 0.000000 0.000000 0.107482 1.392584 1.271074 0.464118 1.389776 2.514457 -0.253473 -0.653531 -1.949653 0.000000 0.000000 0.000000 1.477052 1.553860 -0.302954 0.069459 1.363320 -0.547972 0.369323 -0.379167 1.978093 0.000000 0.000000 0.000000 0.189324 -0.564435 -1.004264 0.264980 3.716828 0.147711 0.008053 -6.053329 -0.343697 0.000000 0.000000 0.000000 -6.235075 -3.488616 -3.747732 -6.144876 2.231964 -0.816587 -6.346856 -2.200567 -2.413612 0.000000 0.000000 0.000000 
-1696.497559 861.524597 1057.194946 1.215638 2.963741 2.797032 -0.850248 -3.896462 -4.061294 -0.444766 0.673013 0.853748 -0.543626 -0.795983 -0.534134 -0.781184 -15.140271 3.456687 0.000000 0.000000 0.000000 0.115458 1.399190 1.268263 0.469920 1.397732 2.546974 -0.238527 -0.713704 -1.913612 0.000000 0.000000 0.000000 1.476576 1.590405 -0.311009 0.066135 1.399621 -0.579367 0.374832 -0.337205 1.987910 0.000000 0.000000 0.000000 0.197328 -0.572031 -1.023137 0.272844 3.745342 0.152915 0.015063 -6.062813 -0.341177 0.000000 0.000000 0.000000 -6.223829 -3.467025 -3.771740 -6.139238 2.212332 -0.799244 -6.338109 -2.194760 -2.410784 0.000000 0.000000 0.000000 
-1696.376221 861.717834 1057.191040 1.190111 2.968742 2.798778 -0.851437 -3.939103 -4.057240 -0.446180 0.679109 0.852269 -0.544920 -0.803723 -0.533477 -0.781069 -15.104434 3.455527 0.000000 0.000000 0.000000 0.119410 1.411468 1.264908 0.476131 1.411012 2.583616 -0.227898 -0.757566 -1.888937 0.000000 0.000000 0.000000 1.474447 1.630367 -0.319138 0.062563 1.439522 -0.609601 0.386278 -0.267359 2.015676 0.000000 0.000000 0.000000 0.206294 -0.578800 -1.043749 0.280995 3.760161 0.160077 0.023034 -6.067389 -0.337954 0.000000 0.000000 0.000000 -6.212551 -3.447615 -3.794952 -6.133839 2.184777 -0.782271 -6.328789 -2.185649 -2.408339 0.000000 0.000000 0.000000 
-1696.269653 861.900146 1057.188965 1.166121 2.974481 2.798929 -0.851879 -3.978262 -4.056625 -0.446488 0.683767 0.852431 -0.545310 -0.810791 -0.534123 -0.781470 -15.068046 3.454959 0.000000 0.000000 0.000000 0.118518 1.424998 1.264539 0.481513 1.424898 2.616790 -0.220518 -0.786553 -1.870712 0.000000 0.000000 0.000000 1.471407 1.667689 -0.327719 0.060278 1.477023 -0.630818 0.399601 -0.191650 2.050367 0.000000 0.000000 0.000000 0.214806 -0.580184 -1.059905 0.288482 3.760841 0.163658 0.030631 -6.062526 -0.334350 0.000000 0.000000 0.000000 -6.202234 -3.430816 -3.814238 -6.128718 2.158315 -0.767487 -6.319822 -2.174172 -2.406519 0.000000 0.000000 0.000000 
-1696.171997 862.057251 1057.186035 1.145371 2.981204 2.796592 -0.852753 -4.015579 -4.060494 -0.446833 0.686755 0.853381 -0.545732 -0.815074 -0.534013 -0.781535 -15.033476 3.453890 0.000000 0.000000 0.000000 0.113377 1.439119 1.267668 0.486018 1.438780 2.646416 -0.216425 -0.798446 -1.857371 0.000000 0.000000 0.000000 1.470761 1.701701 -0.336874 0.059744 1.511049 -0.640403 0.414444 -0.112335 2.091160 0.000000 0.000000 0.000000 0.222676 -0.570726 -1.067991 0.294965 3.736850 0.160380 0.037636 -6.042495 -0.330129 0.000000 0.000000 0.000000 -6.193376 -3.414702 -3.827618 -6.124525 2.129339 -0.754560 -6.311462 -2.159367 -2.405636 0.000000 0.000000 0.000000 
-1696.087280 862.203613 1057.183960 1.125792 2.988528 2.792712 -0.853057 -4.050104 -4.066478 -0.446514 0.688264 0.853835 -0.545535 -0.817095 -0.535143 -0.782592 -15.000365 3.454929 0.000000 0.000000 0.000000 0.104894 1.454119 1.273808 0.489849 1.453061 2.673152 -0.215520 -0.795822 -1.850419 0.000000 0.000000 0.000000 1.470624 1.732822 -0.345185 0.060314 1.542223 -0.641575 0.431188 -0.026886 2.138890 0.000000 0.000000 0.000000 0.230236 -0.555365 -1.071733 0.300891 3.698311 0.153538 0.044386 -6.013007 -0.325473 0.000000 0.000000 0.000000 -6.185374 -3.400578 -3.837395 -6.120621 2.100901 -0.743445 -6.303421 -2.142584 -2.405287 0.000000 0.000000 0.000000 
-1696.057861 862.358398 1057.183960 1.103520 2.990610 2.788632 -0.850782 -4.063451 -4.073958 -0.443594 0.687609 0.855667 -0.542798 -0.816593 -0.535858 -0.781656 -14.980780 3.452989 0.000000 0.000000 0.000000 0.098436 1.467416 1.278487 0.492175 1.465842 2.691731 -0.215506 -0.790834 -1.846535 0.000000 0.000000 0.000000 1.467565 1.757000 -0.355736 0.062368 1.566975 -0.633038 0.446411 0.047861 2.183513 0.000000 0.000000 0.000000 0.238036 -0.545887 -1.075887 0.307742 3.675093 0.146548 0.051494 -5.987324 -0.320880 0.000000 0.000000 0.000000 -6.175668 -3.394101 -3.845910 -6.113013 2.090800 -0.738481 -6.293855 -2.128660 -2.403678 0.000000 0.000000 0.000000 
-1696.101440 862.533386 1057.182983 1.075341 2.982334 2.784937 -0.844041 -4.044356 -4.082009 -0.436235 0.686348 0.860271 -0.536006 -0.813859 -0.539412 -0.778312 -14.982050 3.447876 0.000000 0.000000 0.000000 0.094508 1.477536 1.282798 0.492480 1.475638 2.698842 -0.215214 -0.789059 -1.843572 0.000000 0.000000 0.000000 1.459363 1.771477 -0.368071 0.066200 1.582882 -0.612814 0.459077 0.105927 2.222335 0.000000 0.000000 0.000000 0.246435 -0.545590 -1.082371 0.316324 3.682098 0.140182 0.059248 -5.971314 -0.316563 0.000000 0.000000 0.000000 -6.162671 -3.396834 -3.855043 -6.099387 2.110596 -0.741560 -6.281734 -2.120349 -2.399796 0.000000 0.000000 0.000000 
-1696.198730 862.717896 1057.183960 1.044688 2.968933 2.781269 -0.834727 -4.005260 -4.090661 -0.426452 0.684426 0.864696 -0.526747 -0.809291 -0.542532 -0.773510 -14.996959 3.440964 0.000000 0.000000 0.000000 0.092462 1.486143 1.285999 0.491307 1.484099 2.697900 -0.215759 -0.785558 -1.843892 0.000000 0.000000 0.000000 1.448178 1.779259 -0.381850 0.071436 1.592624 -0.583524 0.470275 0.152986 2.258424 0.000000 0.000000 0.000000 0.254868 -0.551051 -1.089783 0.325561 3.704245 0.134130 0.067145 -5.959105 -0.312402 0.000000 0.000000 0.000000 -6.148255 -3.407213 -3.863304 -6.082418 2.148523 -0.750414 -6.268362 -2.114425 -2.394870 0.000000 0.000000 0.000000 
